<svg xmlns="http://www.w3.org/2000/svg" viewBox="0 0 512 512" xml:space="preserve">
    <circle fill="transparent" cx="254.437" cy="255.997" r="176.556"/>
    <path fill="transparent"
          d="M467.995 79.439V272.66c20.08 0 36.356-16.277 36.356-36.356V115.796c.001-20.08-16.276-36.357-36.356-36.357"/>
    <path fill="#82BD69"
          d="M254.437 71.791C152.864 71.791 70.228 154.427 70.228 256s82.636 184.209 184.209 184.209S438.646 357.573 438.646 256 356.01 71.791 254.437 71.791m0 353.121c-93.138 0-168.912-75.774-168.912-168.912S161.299 87.088 254.437 87.088 423.349 162.862 423.349 256s-75.773 168.912-168.912 168.912"/>
    <path fill="#82BD69"
          d="M254.437 126.11c-71.622 0-129.891 58.269-129.891 129.891 0 39.816 17.948 76.904 49.241 101.755l9.513-11.978c-27.618-21.933-43.457-54.655-43.457-89.777 0-63.187 51.406-114.594 114.594-114.594s114.594 51.406 114.594 114.594-51.407 114.593-114.594 114.593c-20.435 0-40.507-5.47-58.045-15.819l-7.774 13.175c19.892 11.738 42.653 17.941 65.819 17.941 71.622 0 129.891-58.269 129.891-129.891s-58.27-129.89-129.891-129.89m-178.8 16.465V79.439H60.34v63.136c0 11.323-5.435 18.969-14.873 21.549V79.439H30.17v84.684c-9.437-2.58-14.874-10.226-14.874-21.548V79.439H0v63.136c0 19.963 11.841 34.137 30.169 37.195v245.32h15.297V179.77c18.33-3.057 30.171-17.232 30.171-37.195m392.358-70.784h-7.648v353.297h15.297V279.629C496.273 275.998 512 257.958 512 236.304V115.796c0-24.265-19.74-44.005-44.005-44.005m28.708 164.513c0 13.183-8.93 24.318-21.06 27.674V88.122c12.129 3.356 21.06 14.491 21.06 27.674z"/>
</svg>