<svg viewBox="0 0 261 177" fill="none" xmlns="http://www.w3.org/2000/svg">
    <path d="M45.7728 43.712C52.1301 43.712 55.3088 41.1307 55.3088 35.968C55.3088 33.4507 53.7514 31.3173 50.6368 29.568C49.2288 28.7573 47.6714 27.9893 45.9648 27.264C44.3008 26.5387 42.6154 25.7493 40.9088 24.896C39.2021 24.0427 37.6448 23.1253 36.2368 22.144C34.8714 21.1627 33.7408 19.9253 32.8448 18.432C31.9914 16.9387 31.5648 15.2533 31.5648 13.376C31.5648 10.304 32.8021 7.70133 35.2768 5.568C37.7941 3.392 41.2288 2.304 45.5808 2.304C49.9328 2.304 54.5194 3.62666 59.3408 6.272C59.3408 8.704 59.0421 11.7547 58.4448 15.424C57.5061 15.552 56.2688 15.616 54.7328 15.616L52.8128 8.192C52.3008 7.936 51.2768 7.68 49.7408 7.424C48.2474 7.168 46.9248 7.04 45.7728 7.04C43.2981 7.04 41.3781 7.57333 40.0128 8.64C38.6474 9.664 37.9648 11.1147 37.9648 12.992C37.9648 14.8267 38.7541 16.4907 40.3328 17.984C41.9541 19.4347 43.8954 20.6933 46.1568 21.76C48.4608 22.784 50.7434 23.8507 53.0048 24.96C55.3088 26.0693 57.2501 27.52 58.8288 29.312C60.4501 31.0613 61.2607 33.1093 61.2607 35.456C61.2607 39.7227 59.8314 43.0293 56.9728 45.376C54.1141 47.68 50.3808 48.832 45.7728 48.832C43.2554 48.832 40.5248 48.448 37.5808 47.68C34.6794 46.8693 32.2688 45.8453 30.3488 44.608C30.4341 41.7493 30.7541 38.4427 31.3088 34.688C32.2474 34.56 33.4848 34.496 35.0208 34.496L36.3648 42.176C37.3034 42.56 38.7114 42.9227 40.5888 43.264C42.5088 43.5627 44.2368 43.712 45.7728 43.712ZM38.4718 88.576C38.4718 98.2187 36.2744 104.768 31.8798 108.224C30.0451 109.675 28.0611 110.677 25.9278 111.232C23.7944 111.744 20.9998 112 17.5438 112H1.28775L1.09575 109.76C1.26642 109.632 2.14108 109.355 3.71975 108.928C5.29842 108.501 6.23708 108.288 6.53575 108.288C6.27975 91.648 6.06642 79.2747 5.89575 71.168C3.97575 70.912 2.09842 70.4 0.26375 69.632C0.349083 68.1813 0.45575 67.3707 0.58375 67.2H16.7118C21.1491 67.2 24.6478 67.6053 27.2078 68.416C29.8104 69.2267 32.0718 70.72 33.9918 72.896C36.9784 76.1813 38.4718 81.408 38.4718 88.576ZM32.2638 89.088C32.2638 83.328 31.1758 78.9973 28.9998 76.096C26.8664 73.152 23.2611 71.68 18.1838 71.68H11.6558C11.4851 79.5307 11.2718 91.52 11.0158 107.648H17.7358C23.5811 107.648 27.4638 106.347 29.3838 103.744C31.3038 101.099 32.2638 96.2133 32.2638 89.088ZM74.878 152.576C74.878 162.219 72.6807 168.768 68.286 172.224C66.4513 173.675 64.4673 174.677 62.334 175.232C60.2007 175.744 57.406 176 53.95 176H37.694L37.502 173.76C37.6727 173.632 38.5473 173.355 40.126 172.928C41.7047 172.501 42.6433 172.288 42.942 172.288C42.686 155.648 42.4727 143.275 42.302 135.168C40.382 134.912 38.5047 134.4 36.67 133.632C36.7553 132.181 36.862 131.371 36.99 131.2H53.118C57.5553 131.2 61.054 131.605 63.614 132.416C66.2167 133.227 68.478 134.72 70.398 136.896C73.3847 140.181 74.878 145.408 74.878 152.576ZM68.67 153.088C68.67 147.328 67.582 142.997 65.406 140.096C63.2727 137.152 59.6673 135.68 54.59 135.68H48.062C47.8913 143.531 47.678 155.52 47.422 171.648H54.142C59.9873 171.648 63.87 170.347 65.79 167.744C67.71 165.099 68.67 160.213 68.67 153.088Z" fill="#82BD69"/>
    <path d="M77.9803 9.408C76.8709 9.664 75.7829 9.792 74.7163 9.792C73.6923 9.792 72.6683 9.728 71.6443 9.6C71.3883 8.40533 71.2603 7.21067 71.2603 6.016C71.2603 4.77866 71.3029 3.86133 71.3883 3.264C72.3269 3.05066 73.3083 2.944 74.3323 2.944C75.3989 2.944 76.5296 2.98666 77.7243 3.072C77.9803 4.18133 78.1083 5.26933 78.1083 6.336C78.1083 7.36 78.0656 8.384 77.9803 9.408ZM66.3323 16.128C69.9589 15.488 72.7749 15.168 74.7803 15.168C76.7856 15.168 78.0656 15.2107 78.6203 15.296C78.6203 16.32 78.4923 17.4507 78.2363 18.688C77.9803 19.9253 77.8309 20.5227 77.7883 20.48L77.2123 43.648L82.5883 44.16C82.5883 45.3547 82.2256 46.6347 81.5003 48H66.7803L66.5883 45.76C68.5509 45.0773 70.4709 44.5653 72.3483 44.224C72.0923 33.5573 71.8789 25.5573 71.7083 20.224C69.2336 20.224 67.3563 19.968 66.0763 19.456L66.3323 16.128ZM117.188 21.888C117.358 23.2533 117.444 24.832 117.444 26.624C117.444 28.416 117.273 34.0907 116.932 43.648L122.308 44.16C122.308 45.3547 121.945 46.6347 121.22 48H106.5L106.308 45.76C108.27 45.0773 110.19 44.5653 112.068 44.224C111.812 32.8747 111.577 26.56 111.364 25.28C111.193 24 110.894 22.9333 110.468 22.08C110.041 21.184 109.38 20.5653 108.484 20.224C107.588 19.8827 106.222 19.712 104.388 19.712C102.596 19.712 100.228 20.3947 97.2838 21.76C97.0278 31.488 96.8571 38.784 96.7718 43.648L102.148 44.16C102.148 45.3547 101.785 46.6347 101.06 48H86.3398L86.1478 45.76C88.1104 45.0773 90.0304 44.5653 91.9078 44.224C91.8651 41.152 91.7584 36.8213 91.5878 31.232C91.4171 25.6 91.3104 21.9093 91.2678 20.16C88.9211 20.032 87.0438 19.776 85.6358 19.392L85.8918 16.064C88.1958 15.424 91.5451 15.104 95.9398 15.104C96.5371 16.1707 96.9211 17.28 97.0918 18.432C98.9691 17.4507 100.825 16.5973 102.66 15.872C104.494 15.104 105.646 14.72 106.116 14.72C110.852 14.72 114.158 16.1707 116.036 19.072C117.998 18.0053 120.025 17.024 122.116 16.128C124.249 15.1893 125.529 14.72 125.956 14.72C129.838 14.72 132.74 15.68 134.66 17.6C136.622 19.4773 137.604 22.5707 137.604 26.88C137.604 28.16 137.433 33.7493 137.092 43.648L142.468 44.16C142.468 45.3547 142.105 46.6347 141.38 48H126.66L126.468 45.76C128.43 45.0773 130.35 44.5653 132.228 44.224C132.057 37.4827 131.908 32.384 131.78 28.928C131.652 25.472 131.161 23.0827 130.308 21.76C129.454 20.3947 127.748 19.712 125.188 19.712C122.628 19.712 119.961 20.4373 117.188 21.888ZM155.446 44.736L155.126 58.432L160.694 58.88C160.694 60.0747 160.331 61.3547 159.606 62.72H144.758L144.566 60.48C146.528 59.84 148.448 59.3493 150.326 59.008C150.07 41.6 149.856 28.6507 149.686 20.16C147.766 20.1173 145.888 19.8613 144.054 19.392L144.31 16.064C146.784 15.424 150.24 15.104 154.678 15.104C155.062 15.7867 155.424 17.0453 155.766 18.88C161.227 16.1067 164.683 14.72 166.134 14.72C170.102 14.72 173.046 16.2773 174.966 19.392C176.886 22.464 177.846 26.4747 177.846 31.424C177.846 36.3307 176.758 40.448 174.582 43.776C172.448 47.104 169.334 48.768 165.238 48.768C163.702 48.768 162.016 48.384 160.182 47.616C158.39 46.848 156.811 45.888 155.446 44.736ZM164.982 19.52C162.336 19.52 159.264 20.4587 155.766 22.336C155.68 30.272 155.595 36.224 155.51 40.192C156.576 41.2587 157.984 42.24 159.734 43.136C161.526 43.9893 163.083 44.416 164.406 44.416C169.44 44.416 171.958 40.2773 171.958 32C171.958 28.8427 171.595 26.368 170.87 24.576C170.144 22.7413 169.312 21.44 168.374 20.672C167.435 19.904 166.304 19.52 164.982 19.52ZM191.1 0.447998C192.423 0.447998 193.362 0.490664 193.916 0.575996C193.916 2.06933 193.639 3.776 193.084 5.696C192.7 30.8693 192.508 43.52 192.508 43.648L197.884 44.16C197.884 45.3547 197.522 46.6347 196.796 48H182.076L181.884 45.76C183.847 45.0773 185.767 44.5653 187.644 44.224L187.004 5.504C184.658 5.376 182.78 5.12 181.372 4.736L181.628 1.408C183.804 0.767998 186.962 0.447998 191.1 0.447998ZM207.991 59.904C209.613 59.904 211.191 58.3467 212.727 55.232C214.306 52.1173 215.202 49.7067 215.415 48H213.879L203.767 19.84L198.391 19.328C198.391 18.1333 198.754 16.8533 199.479 15.488H214.199L214.391 17.728C213.026 18.3253 211.511 18.7947 209.847 19.136L215.415 36.608L216.887 42.24H217.527L225.207 19.136L219.831 17.728L220.023 15.488H234.423C235.149 16.8533 235.511 18.1333 235.511 19.328C233.762 19.5413 232.013 19.6907 230.263 19.776C229.154 23.0187 227.49 27.8613 225.271 34.304C223.095 40.7467 221.367 45.7387 220.087 49.28C218.85 52.8213 217.613 55.7013 216.375 57.92C215.138 60.1387 213.901 61.6107 212.663 62.336C211.469 63.104 210.125 63.488 208.631 63.488C205.986 63.488 203.511 62.976 201.207 61.952L200.055 61.376C200.354 56.512 200.546 53.8453 200.631 53.376C200.973 53.248 202.21 53.184 204.343 53.184L206.519 59.712C206.903 59.84 207.394 59.904 207.991 59.904ZM59.5913 108.416C61.4686 108.416 64.4126 107.52 68.4233 105.728C69.2339 106.837 69.6606 107.819 69.7033 108.672C67.5273 109.952 65.3939 110.955 63.3033 111.68C61.2126 112.405 59.7193 112.768 58.8233 112.768C53.8739 112.768 50.0979 111.296 47.4953 108.352C44.8926 105.365 43.5913 101.205 43.5913 95.872C43.5913 90.5387 44.8499 86.3573 47.3673 83.328C49.9273 80.256 53.7459 78.72 58.8233 78.72C62.7486 78.72 65.7353 80.128 67.7833 82.944C69.8739 85.76 70.9193 89.536 70.9193 94.272C70.5779 94.8693 70.3006 95.2747 70.0873 95.488L49.4792 95.168C49.5219 99.4773 50.2686 102.763 51.7193 105.024C53.2126 107.285 55.8366 108.416 59.5913 108.416ZM65.0953 91.52C65.0953 88.704 64.5833 86.528 63.5593 84.992C62.5353 83.4133 60.8286 82.624 58.4393 82.624C56.0499 82.624 53.9166 83.072 52.0393 83.968C50.7593 86.528 49.9486 89.152 49.6073 91.84C52.9779 91.7973 58.1406 91.6907 65.0953 91.52ZM84.7253 64.448C86.0479 64.448 86.9866 64.4907 87.5413 64.576C87.5413 66.0693 87.2639 67.776 86.7093 69.696C86.3253 94.8693 86.1333 107.52 86.1333 107.648L91.5093 108.16C91.5093 109.355 91.1466 110.635 90.4213 112H75.7013L75.5093 109.76C77.4719 109.077 79.3919 108.565 81.2693 108.224L80.6293 69.504C78.2826 69.376 76.4053 69.12 74.9973 68.736L75.2533 65.408C77.4293 64.768 80.5866 64.448 84.7253 64.448ZM106.48 73.408C105.371 73.664 104.283 73.792 103.216 73.792C102.192 73.792 101.168 73.728 100.144 73.6C99.8883 72.4053 99.7603 71.2107 99.7603 70.016C99.7603 68.7787 99.8029 67.8613 99.8883 67.264C100.827 67.0507 101.808 66.944 102.832 66.944C103.899 66.944 105.03 66.9867 106.224 67.072C106.48 68.1813 106.608 69.2693 106.608 70.336C106.608 71.36 106.566 72.384 106.48 73.408ZM94.8323 80.128C98.4589 79.488 101.275 79.168 103.28 79.168C105.286 79.168 106.566 79.2107 107.12 79.296C107.12 80.32 106.992 81.4507 106.736 82.688C106.48 83.9253 106.331 84.5227 106.288 84.48L105.712 107.648L111.088 108.16C111.088 109.355 110.726 110.635 110 112H95.2803L95.0883 109.76C97.0509 109.077 98.9709 108.565 100.848 108.224C100.592 97.5573 100.379 89.5573 100.208 84.224C97.7336 84.224 95.8563 83.968 94.5763 83.456L94.8323 80.128ZM129.88 112.768C124.76 112.768 120.941 111.339 118.424 108.48C115.906 105.579 114.648 101.461 114.648 96.128C114.648 84.5227 119.81 78.72 130.136 78.72C131.8 78.72 133.528 78.976 135.32 79.488C137.112 79.9573 138.52 80.4907 139.544 81.088C139.416 85.056 139.01 87.872 138.328 89.536C137.56 89.7493 136.941 89.856 136.472 89.856H135.384C135.17 89.856 134.914 89.8347 134.616 89.792L133.016 82.752C131.608 82.624 130.797 82.56 130.584 82.56C127.512 82.56 125.058 83.4987 123.224 85.376C121.432 87.2533 120.536 90.4107 120.536 94.848C120.536 99.2853 121.218 102.656 122.584 104.96C123.992 107.264 126.68 108.416 130.648 108.416C132.525 108.416 135.469 107.52 139.48 105.728C140.29 106.837 140.717 107.819 140.76 108.672C138.584 109.952 136.45 110.955 134.36 111.68C132.269 112.405 130.776 112.768 129.88 112.768ZM156.355 73.408C155.246 73.664 154.158 73.792 153.091 73.792C152.067 73.792 151.043 73.728 150.019 73.6C149.763 72.4053 149.635 71.2107 149.635 70.016C149.635 68.7787 149.678 67.8613 149.763 67.264C150.702 67.0507 151.683 66.944 152.707 66.944C153.774 66.944 154.905 66.9867 156.099 67.072C156.355 68.1813 156.483 69.2693 156.483 70.336C156.483 71.36 156.441 72.384 156.355 73.408ZM144.707 80.128C148.334 79.488 151.15 79.168 153.155 79.168C155.161 79.168 156.441 79.2107 156.995 79.296C156.995 80.32 156.867 81.4507 156.611 82.688C156.355 83.9253 156.206 84.5227 156.163 84.48L155.587 107.648L160.963 108.16C160.963 109.355 160.601 110.635 159.875 112H145.155L144.963 109.76C146.926 109.077 148.846 108.565 150.723 108.224C150.467 97.5573 150.254 89.5573 150.083 84.224C147.609 84.224 145.731 83.968 144.451 83.456L144.707 80.128ZM179.307 108.928C182.891 108.928 185.301 107.819 186.539 105.6C187.819 103.339 188.459 100.139 188.459 96C188.459 89.4293 187.008 85.312 184.107 83.648C182.912 82.9653 181.227 82.624 179.051 82.624C176.917 82.624 174.891 83.072 172.971 83.968C171.264 87.2533 170.411 91.072 170.411 95.424C170.411 99.6053 170.965 102.827 172.075 105.088C173.355 107.648 175.765 108.928 179.307 108.928ZM164.523 96C164.523 90.5813 165.76 86.3573 168.235 83.328C170.709 80.256 174.528 78.72 179.691 78.72C184.853 78.72 188.587 80.128 190.891 82.944C193.195 85.7173 194.347 89.8347 194.347 95.296C194.347 100.757 193.109 105.045 190.635 108.16C188.203 111.275 184.491 112.832 179.499 112.832C174.507 112.832 170.752 111.381 168.235 108.48C165.76 105.579 164.523 101.419 164.523 96ZM215.472 107.776C216.71 107.776 218.096 107.52 219.632 107.008C221.168 106.453 222.427 105.792 223.408 105.024C223.238 95.936 223.088 89.0453 222.96 84.352C220.315 84.352 218.352 84.096 217.072 83.584L217.328 80.256C220.955 79.616 223.792 79.296 225.84 79.296C227.931 79.296 229.254 79.3387 229.808 79.424C229.808 80.192 229.68 81.216 229.424 82.496C229.211 83.776 229.062 84.48 228.976 84.608L228.208 107.456C230.47 107.584 232.304 107.84 233.712 108.224L233.584 111.488C231.707 112.085 229.894 112.384 228.144 112.384C226.395 112.384 225.328 112.363 224.944 112.32C224.134 110.699 223.664 109.205 223.536 107.84C221.446 109.419 219.504 110.635 217.712 111.488C215.963 112.341 214.811 112.768 214.256 112.768C210.502 112.768 207.771 111.765 206.064 109.76C204.4 107.712 203.568 104.725 203.568 100.8C203.568 100.757 203.76 95.296 204.144 84.416C201.67 84.416 199.387 84.1387 197.296 83.584L197.552 80.256C201.179 79.616 203.995 79.296 206 79.296C208.006 79.296 209.286 79.3387 209.84 79.424C209.84 80.448 209.712 81.5787 209.456 82.816C209.2 84.0533 209.051 84.6507 209.008 84.608L209.072 98.432C209.072 101.675 209.478 104.043 210.288 105.536C211.099 107.029 212.827 107.776 215.472 107.776ZM242.335 107.904C243.828 108.544 245.641 108.864 247.775 108.864C249.951 108.864 251.657 108.459 252.895 107.648C254.132 106.837 254.751 105.728 254.751 104.32C254.751 102.912 254.175 101.739 253.023 100.8C251.871 99.8613 250.463 99.0293 248.799 98.304C247.135 97.5787 245.471 96.8107 243.807 96C242.143 95.1893 240.735 94.1227 239.583 92.8C238.431 91.4773 237.855 89.9413 237.855 88.192C237.855 85.248 238.836 82.944 240.799 81.28C242.761 79.5733 245.471 78.72 248.927 78.72C252.425 78.72 255.711 79.5093 258.783 81.088C258.825 81.5147 258.847 82.6667 258.847 84.544C258.847 86.3787 258.655 87.9573 258.271 89.28C257.247 89.6213 256.031 89.792 254.623 89.792L252.511 83.264C251.572 82.7947 250.292 82.56 248.671 82.56C247.092 82.56 245.833 82.9867 244.895 83.84C243.956 84.6507 243.487 85.696 243.487 86.976C243.487 88.2133 244.063 89.3013 245.215 90.24C246.409 91.1787 247.839 92.032 249.503 92.8C251.167 93.5253 252.831 94.3147 254.495 95.168C256.159 95.9787 257.567 97.0667 258.719 98.432C259.913 99.7547 260.511 101.291 260.511 103.04C260.511 106.112 259.316 108.523 256.927 110.272C254.58 111.979 251.679 112.832 248.223 112.832C246.345 112.832 244.34 112.533 242.207 111.936C240.073 111.296 238.281 110.485 236.831 109.504C236.831 106.645 237.087 104.107 237.599 101.888C238.58 101.717 239.903 101.632 241.567 101.632L242.335 107.904ZM91.2615 137.408C90.1522 137.664 89.0642 137.792 87.9975 137.792C86.9735 137.792 85.9495 137.728 84.9255 137.6C84.6695 136.405 84.5415 135.211 84.5415 134.016C84.5415 132.779 84.5842 131.861 84.6695 131.264C85.6082 131.051 86.5895 130.944 87.6135 130.944C88.6802 130.944 89.8108 130.987 91.0055 131.072C91.2615 132.181 91.3895 133.269 91.3895 134.336C91.3895 135.36 91.3468 136.384 91.2615 137.408ZM79.6135 144.128C83.2402 143.488 86.0562 143.168 88.0615 143.168C90.0668 143.168 91.3468 143.211 91.9015 143.296C91.9015 144.32 91.7735 145.451 91.5175 146.688C91.2615 147.925 91.1122 148.523 91.0695 148.48L90.4935 171.648L95.8695 172.16C95.8695 173.355 95.5068 174.635 94.7815 176H80.0615L79.8695 173.76C81.8322 173.077 83.7522 172.565 85.6295 172.224C85.3735 161.557 85.1602 153.557 84.9895 148.224C82.5148 148.224 80.6375 147.968 79.3575 147.456L79.6135 144.128ZM104.741 171.904C106.234 172.544 108.048 172.864 110.181 172.864C112.357 172.864 114.064 172.459 115.301 171.648C116.538 170.837 117.157 169.728 117.157 168.32C117.157 166.912 116.581 165.739 115.429 164.8C114.277 163.861 112.869 163.029 111.205 162.304C109.541 161.579 107.877 160.811 106.213 160C104.549 159.189 103.141 158.123 101.989 156.8C100.837 155.477 100.261 153.941 100.261 152.192C100.261 149.248 101.242 146.944 103.205 145.28C105.168 143.573 107.877 142.72 111.333 142.72C114.832 142.72 118.117 143.509 121.189 145.088C121.232 145.515 121.253 146.667 121.253 148.544C121.253 150.379 121.061 151.957 120.677 153.28C119.653 153.621 118.437 153.792 117.029 153.792L114.917 147.264C113.978 146.795 112.698 146.56 111.077 146.56C109.498 146.56 108.24 146.987 107.301 147.84C106.362 148.651 105.893 149.696 105.893 150.976C105.893 152.213 106.469 153.301 107.621 154.24C108.816 155.179 110.245 156.032 111.909 156.8C113.573 157.525 115.237 158.315 116.901 159.168C118.565 159.979 119.973 161.067 121.125 162.432C122.32 163.755 122.917 165.291 122.917 167.04C122.917 170.112 121.722 172.523 119.333 174.272C116.986 175.979 114.085 176.832 110.629 176.832C108.752 176.832 106.746 176.533 104.613 175.936C102.48 175.296 100.688 174.485 99.237 173.504C99.237 170.645 99.493 168.107 100.005 165.888C100.986 165.717 102.309 165.632 103.973 165.632L104.741 171.904ZM137.327 128.448C138.649 128.448 139.588 128.491 140.143 128.576C140.143 129.344 140.015 130.347 139.759 131.584C139.545 132.779 139.396 133.483 139.311 133.696C139.311 134.635 139.268 136.576 139.183 139.52C139.097 142.464 139.055 144.747 139.055 146.368C140.889 145.387 142.703 144.533 144.495 143.808C146.329 143.083 147.481 142.72 147.951 142.72C152.047 142.72 155.012 143.744 156.847 145.792C158.681 147.797 159.599 150.869 159.599 155.008C159.599 156.203 159.428 161.749 159.087 171.648L164.463 172.16C164.463 173.355 164.1 174.635 163.375 176H148.655L148.463 173.76C150.425 173.077 152.345 172.565 154.223 172.224C153.967 161.045 153.732 154.837 153.519 153.6C153.348 152.32 153.049 151.211 152.623 150.272C152.196 149.333 151.556 148.672 150.703 148.288C149.849 147.904 148.719 147.712 147.311 147.712C144.409 147.712 141.636 148.395 138.991 149.76L138.607 171.648L143.983 172.16C143.983 173.355 143.62 174.635 142.895 176H128.174L127.983 173.76C129.945 173.077 131.865 172.565 133.743 172.224L132.975 133.504C130.628 133.376 128.751 133.12 127.343 132.736L127.599 129.408C129.775 128.768 133.017 128.448 137.327 128.448ZM184.123 172.416C186 172.416 188.944 171.52 192.955 169.728C193.765 170.837 194.192 171.819 194.235 172.672C192.059 173.952 189.925 174.955 187.835 175.68C185.744 176.405 184.251 176.768 183.355 176.768C178.405 176.768 174.629 175.296 172.027 172.352C169.424 169.365 168.123 165.205 168.123 159.872C168.123 154.539 169.381 150.357 171.899 147.328C174.459 144.256 178.277 142.72 183.355 142.72C187.28 142.72 190.267 144.128 192.315 146.944C194.405 149.76 195.451 153.536 195.451 158.272C195.109 158.869 194.832 159.275 194.619 159.488L174.01 159.168C174.053 163.477 174.8 166.763 176.251 169.024C177.744 171.285 180.368 172.416 184.123 172.416ZM189.627 155.52C189.627 152.704 189.115 150.528 188.091 148.992C187.067 147.413 185.36 146.624 182.971 146.624C180.581 146.624 178.448 147.072 176.571 147.968C175.291 150.528 174.48 153.152 174.139 155.84C177.509 155.797 182.672 155.691 189.627 155.52ZM205.929 171.904C207.422 172.544 209.235 172.864 211.369 172.864C213.545 172.864 215.251 172.459 216.489 171.648C217.726 170.837 218.345 169.728 218.345 168.32C218.345 166.912 217.769 165.739 216.617 164.8C215.465 163.861 214.057 163.029 212.393 162.304C210.729 161.579 209.065 160.811 207.401 160C205.737 159.189 204.329 158.123 203.177 156.8C202.025 155.477 201.449 153.941 201.449 152.192C201.449 149.248 202.43 146.944 204.393 145.28C206.355 143.573 209.065 142.72 212.521 142.72C216.019 142.72 219.305 143.509 222.377 145.088C222.419 145.515 222.441 146.667 222.441 148.544C222.441 150.379 222.249 151.957 221.865 153.28C220.841 153.621 219.625 153.792 218.217 153.792L216.105 147.264C215.166 146.795 213.886 146.56 212.265 146.56C210.686 146.56 209.427 146.987 208.489 147.84C207.55 148.651 207.081 149.696 207.081 150.976C207.081 152.213 207.657 153.301 208.809 154.24C210.003 155.179 211.433 156.032 213.097 156.8C214.761 157.525 216.425 158.315 218.089 159.168C219.753 159.979 221.161 161.067 222.313 162.432C223.507 163.755 224.105 165.291 224.105 167.04C224.105 170.112 222.91 172.523 220.521 174.272C218.174 175.979 215.273 176.832 211.817 176.832C209.939 176.832 207.934 176.533 205.801 175.936C203.667 175.296 201.875 174.485 200.424 173.504C200.424 170.645 200.681 168.107 201.193 165.888C202.174 165.717 203.497 165.632 205.161 165.632L205.929 171.904Z" fill="black"/>
</svg>
